<svg xmlns="http://www.w3.org/2000/svg" viewBox="0 0 769.67 1018.04"><defs><style>.cls-1{fill:#613a8f;}.cls-2{fill:#fff;}</style></defs><g id="Слой_2" data-name="Слой 2"><g id="Слой_2-2" data-name="Слой 2"><path class="cls-1" d="M17.08,476.31c-25-86.57-12.27-162.48-2.57-197.77,44.3-161.06,259.62-325.83,477.73-262,186.68,54.65,293.56,252.83,272.25,393-7.15,47-21.5,141.32-89.54,197.88-18.29,15.21-47.21,33.3-62.72,71.45-11.56,28.45-3.87,41.76-6.2,92.82-2.37,52.26-4.44,97.63-29,133.55-9.72,14.2-37.23,47.75-105.3,61.64-1.22,2-30.94,49.61-87.33,48.8A100.4,100.4,0,0,1,297,961.74C234,949.3,207.49,920,196.87,905.23,174.4,874,171.4,836.29,166.05,769.11c-4.74-59.49,2.13-69.85-10.27-95-17.56-35.66-42.22-39.17-74.49-71.92C41.85,562.12,28.72,516.62,17.08,476.31Z"/><path class="cls-1" d="M19.49,475.64A376.32,376.32,0,0,1,10.3,309.31c7-41,22.72-79.39,45.22-114.38,26.65-41.45,61.54-77.67,101-107.15C197.81,56.89,244.57,33.05,294.29,19,346.16,4.4,401.06.81,454.22,10.22A358.33,358.33,0,0,1,591.56,66.14,397.69,397.69,0,0,1,690.32,162a403.31,403.31,0,0,1,59,116.15c11.69,37.26,17.75,76.74,14.51,115.79-1.42,17-4.51,34.1-7.79,50.86a410.29,410.29,0,0,1-16.56,61.34c-8.21,22.66-19,44.47-33.18,64a196.52,196.52,0,0,1-25.74,29.08c-7.5,6.93-15.69,13-23.62,19.41-18.8,15.16-35.25,32.81-45.19,55.1-7.43,16.65-9,33-8.37,51a788.09,788.09,0,0,1-1.7,81.9c-1.91,27.12-5.27,55.08-16.93,80-15.56,33.25-45.47,55.59-79.38,68.2q-9.74,3.62-19.78,6.27-5,1.35-10.14,2.48c-2.17.48-4.42.48-5.95,2.16-2.2,2.41-3.82,5.6-5.9,8.15a110.78,110.78,0,0,1-40.09,31.34c-22.87,10.27-49.39,10.46-72.71,1.48a98.22,98.22,0,0,1-45.07-35.41q-2.75-3.94-5.1-8.14c-1.75-3.11-2.06-3.58-5.6-4.32-37.27-7.76-75.4-24.64-97.53-57-11.12-16.25-17-35-20.51-54.24-4.88-26.46-6.53-53.56-8.58-80.35-1.63-21.26-1-42.56-2.36-63.8-1-15.91-6.59-30.47-15.72-43.57C137,640.74,116.54,629.49,99,615a209.82,209.82,0,0,1-54.39-69.11c-11-22.38-18.19-46.29-25.09-70.2-.89-3.08-5.71-1.77-4.82,1.33,7.17,24.83,14.67,49.64,26.3,72.8a213,213,0,0,0,54.46,68.72c18.54,15.33,40.34,27.07,53.33,48,8.67,14,12.18,28.07,12.59,44.38.62,24.93,1.47,49.65,3.51,74.53s3.86,50.31,9.68,74.74c7.9,33.2,26.31,60.48,55.21,78.77A169.07,169.07,0,0,0,260,953.88c6.34,2.41,12.81,4.49,19.36,6.28,3.59,1,7.22,1.88,10.86,2.69,1.43.32,3.69.36,4.89,1.2s2.21,3.32,3.1,4.77a103.84,103.84,0,0,0,56.74,44.57c41.36,13.2,84.73-2.64,111.78-35.5,1.59-1.94,3.13-3.92,4.59-5.95.64-.89,1.45-2.84,2.36-3.48.49-.34-.17.29.32.1s3.4-.35,4.54-.61q5.85-1.35,11.64-3c6.53-1.85,13-4,19.33-6.45,18.93-7.36,36.86-17.58,51.82-31.42,31.85-29.47,41.44-72,44.86-113.81a727.76,727.76,0,0,0,2.33-85.21c-.31-8.81-.73-17.69.27-26.47,1.16-10.19,4.58-20,9-29.16,10.88-22.36,28.41-39.13,47.66-54.31,18.95-14.94,35.68-31.3,49.25-51.39C740.21,529,753.78,484.6,762,440.2c3.14-17,6.17-34.31,7.23-51.62a284.59,284.59,0,0,0-2.62-57.45c-6-42.1-20.31-82.94-40.07-120.51A416.41,416.41,0,0,0,644.34,102.1,379.84,379.84,0,0,0,525.58,25.48,354.42,354.42,0,0,0,366.43,1.05C313.51,5.16,261.87,20.87,214.81,45.27A441.85,441.85,0,0,0,93.48,137.92C62,172.15,35.57,211.79,19.33,255.54c-15.42,41.51-20.68,87-19,131.1A380.69,380.69,0,0,0,14.67,477C15.55,480.06,20.38,478.75,19.49,475.64Z"/></g><g id="Слой_1-2" data-name="Слой 1"><path class="cls-2" d="M302,806.14q-5.94-12.42-11.44-25L289.2,778c-.2-.45-1.92-4.51-.95-2.22.89,2.11-.5-1.2-.77-1.84-.58-1.39-1.15-2.78-1.72-4.17q-3-7.44-5.92-14.95Q267,721.36,257.45,686.7a719.49,719.49,0,0,1-17.33-80.58q-.76-4.9-1.45-9.82c-.15-1-.74-4.81-.26-1.84-.31-1.91-.5-3.85-.73-5.78q-1.2-9.76-2.11-19.56-1.74-18.79-2.41-37.65c-1.59-44.88,1.68-89.67,7.22-134.18q1-7.85,2-15.68c.52-3.86-.38,2.82.14-1l.48-3.51q.54-4,1.1-8c1.63-11.72,3.25-23.45,5.11-35.14A644,644,0,0,1,263.1,267c2.42-8.95,5.11-17.83,8.18-26.58,1.39-3.95,2.86-7.89,4.41-11.78.34-.85.68-1.69,1-2.54.2-.47.4-1,.59-1.43.61-1.5-.88,2.06-.77,1.82.84-1.82,1.6-3.68,2.43-5.5a212.37,212.37,0,0,1,20.87-36.31q1.37-1.9,2.78-3.78l.57-.75c1.29-1.75-1.27,1.63-1.21,1.56.58-.72,1.14-1.46,1.72-2.19,2-2.48,4-4.91,6.09-7.31,5.39-6.22,10.92-12.33,16.88-18,1.68-1.6,3.38-3.17,5.12-4.69.72-.62,5.16-5.11,5.87-4.86,0,0-3,2.23-.72.58l1.57-1.15c.93-.67,1.86-1.32,2.81-2q3.29-2.22,6.72-4.17c2.18-1.24,4.4-2.39,6.67-3.43l1.38-.62c1.84-.85-2.71,1-.8.35,1.44-.52,2.85-1.08,4.3-1.56a71.42,71.42,0,0,1,6.92-1.89c.69-.16,3.54-1.14,4.08-.78-.08-.05-3.84.41-.86.12l2.12-.2a60.7,60.7,0,0,1,7.51-.14c.68,0,1.35.08,2,.14.42,0,.83.09,1.24.12,2.51.23-4.25-.66-2.27-.31a77.22,77.22,0,0,1,14.31,3.87c.66.25,1.32.53,2,.79,1.61.63-3.41-1.52-1.82-.76.39.19.8.36,1.2.54q2.55,1.17,5,2.48a115.57,115.57,0,0,1,10.73,6.46c1.78,1.19,3.53,2.44,5.25,3.72a8.08,8.08,0,0,1,1.54,1.16c-.12-.2-2.81-2.24-.69-.51,1.06.87,2.13,1.72,3.19,2.61,4.53,3.79,8.86,7.83,13,12,4.72,4.78,9.23,9.77,13.55,14.92,1.92,2.3,3.79,4.64,5.66,7,1.06,1.33-.43-.58-.53-.69.51.58,1,1.27,1.43,1.89,1.06,1.41,2.11,2.84,3.14,4.27a267.28,267.28,0,0,1,18.52,29.73q4.22,7.91,7.93,16.07c.53,1.18,1.06,2.37,1.58,3.55l.66,1.53c1.22,2.8-.28-.4-.22-.53-.19.39,1.49,3.63,1.67,4.09.55,1.37,1.08,2.74,1.6,4.11a319.32,319.32,0,0,1,10.34,32.21c2.85,10.78,5.18,21.69,7.07,32.67.42,2.46.83,4.93,1.21,7.4.22,1.41.43,2.83.63,4.24l.3,2.11c.29,2,0,.1-.1-.81.61,5.46,1.35,10.91,1.9,16.38,2.15,21.42,3,43,3.34,64.47.34,22,.55,44.12-.27,66.13-.4,10.72-1.13,21.41-2.44,32.06-.34,2.73.48-3.24,0,.18-.16,1.05-.31,2.11-.48,3.16-.37,2.34-.79,4.67-1.24,7-.86,4.39-1.89,8.76-3.11,13.06-1.09,3.81-2.33,7.58-3.75,11.28-.37,1-.81,1.9-1.15,2.87-.08.24,1.44-3.27.76-1.82-.21.47-.4.94-.61,1.4q-1.25,2.78-2.64,5.49-2.7,5.22-5.91,10.16-1.57,2.41-3.26,4.74c-.53.73-1.08,1.46-1.62,2.18s-1.78,1.9.92-1.18c-.43.5-.82,1-1.23,1.54a128.87,128.87,0,0,1-19.28,19.3,9.68,9.68,0,0,0-1.44,1.15c.17-.22,2.89-2.16.85-.67-.87.63-1.72,1.27-2.59,1.89q-3,2.13-6.09,4.09-6,3.79-12.36,7-3.09,1.54-6.24,3l-1.69.74c-1.49.69,1.53-.62,1.46-.61a29.19,29.19,0,0,0-3.87,1.55q-6.74,2.6-13.66,4.62c-9.44,2.76-19,4.32-28.63,6.08-.1,0,3.33-.43,1.62-.22l-1.9.23c-1.1.14-2.21.26-3.32.38-2.55.27-5.09.5-7.65.68q-7.44.54-14.9.64a277.86,277.86,0,0,1-29.84-1.21q-3.58-.33-7.15-.75l-3.32-.41c-2-.25,3.16.45,1.15.16l-2.35-.34q-7-1-14-2.38c-9.31-1.81-18.54-4.05-27.63-6.73-8.5-2.51-16.89-5.41-25.1-8.75l-2.16-.89c-1.64-.67,3.32,1.42,1.68.7l-1.3-.56q-2.72-1.17-5.41-2.4-5.67-2.58-11.24-5.38-12.17-6.11-23.81-13.18-6.19-3.78-12.2-7.87c-1.94-1.32-3.86-2.68-5.76-4.06-.89-.64-1.77-1.29-2.65-2l-1.49-1.12c-2.16-1.62,1.87,1.53.45.34-7.06-5.92-14-11.76-20.2-18.65-1.5-1.68-2.81-3.64-4.39-5.22-.11-.11,2,2.68,1.07,1.38-.32-.46-.66-.89-1-1.34-.72-1-1.43-2-2.1-3-2.2-3.31-3.77-6.87-5.71-10.31,2.25,4,.57,1.37.09.08-.3-.82-.57-1.64-.83-2.48-.59-1.88-1-3.78-1.41-5.7-.72-3.3.26,3.18.07.74-.08-1-.17-1.92-.21-2.89a51.73,51.73,0,0,1,.2-5.84c.18-2.45-.74,4-.12,1,.18-.86.34-1.73.55-2.58.42-1.72,1-3.37,1.57-5,1-2.78-1.44,3-.35.82.4-.8.76-1.61,1.18-2.41a54.12,54.12,0,0,1,2.79-4.69c.45-.68.93-1.33,1.39-2,1.86-2.68-2,2.34-.41.51,1.25-1.48,2.5-2.95,3.83-4.36a101.19,101.19,0,0,1,8.72-8c2.66-2.2-2.71,2,.12-.09.76-.55,1.52-1.12,2.29-1.66,1.79-1.28,3.63-2.5,5.49-3.69q5.63-3.57,11.55-6.65c4.1-2.16,8.29-4.15,12.53-6,.63-.28,3.81-1.64,1.58-.69-2.42,1,1.57-.64,2-.82,2.3-.93,4.62-1.82,6.94-2.67,9-3.31,18.08-6.15,27.3-8.6s18.34-4.48,27.62-6.15c4.37-.79,8.75-1.45,13.14-2.09,1.67-.25-2.17.28-1.94.26.54-.05,1.09-.14,1.63-.21l3.21-.38q3.1-.35,6.22-.63a274.92,274.92,0,0,1,35.15-.76q6.9.28,13.79.88,3.57.31,7.13.73l3.41.41c2.35.28-1,.05-1-.14a17.66,17.66,0,0,0,2.5.36,228.5,228.5,0,0,1,31.69,7c5.54,1.66,11,3.56,16.39,5.72.47.19,2.74,1.13.83.33s.36.17.82.37c1.22.54,2.43,1.09,3.64,1.66q4.15,2,8.21,4.15,6.23,3.38,12.11,7.34,2.49,1.67,4.91,3.45c.76.55,1.49,1.13,2.25,1.67,1.51,1.09-2.55-2.05-1.12-.87.51.43,1,.84,1.57,1.26a165.91,165.91,0,0,1,18.42,17.34q4.23,4.63,8.14,9.55c.34.43.67.91,1,1.33-.13-.16-2.25-3-.79-1l1.78,2.39c1.36,1.84,2.68,3.71,4,5.59a216.38,216.38,0,0,1,13.9,23.47q3.22,6.27,6.06,12.74c.24.54,1.67,4,.71,1.6s.44,1.09.66,1.64q1.41,3.48,2.72,7a302.23,302.23,0,0,1,15.19,59.22c.18,1.2.36,2.39.53,3.59.1.69.2,1.37.29,2.06.3,2.09-.37-3-.12-.88.34,2.78.68,5.57,1,8.36q.86,8.24,1.35,16.52,1,16.82.53,33.67-.46,17.82-2.43,35.57-.5,4.39-1.06,8.78c-.11.88.05,2.7.07-.46a14.78,14.78,0,0,1-.25,1.77c-.25,1.78-.52,3.55-.79,5.32q-1.38,9-3.11,17.88a505.82,505.82,0,0,1-20.17,73.22c-2.63,7.4,3,16.74,10.48,18.45,8.41,1.92,15.63-2.55,18.45-10.48,17.56-49.32,28-101.56,28.9-154,.73-44.38-5.39-90-21.76-131.4C511.76,503.39,489.78,470,458,445.72c-35.47-27.13-81.44-37.29-125.34-38.6-31.92-.95-63.93,3.73-94.62,12.36-19.6,5.52-39.07,12.75-56.89,22.67-15.93,8.87-31.36,20.58-41,36.34A58.67,58.67,0,0,0,135.62,531c7.55,18.58,21.14,33.66,36.57,46.19a304.94,304.94,0,0,0,101.78,54c38.91,12,81.36,16.91,121.84,11.7,42-5.41,83.44-21.41,111.36-54.5a139.18,139.18,0,0,0,26.7-47.81c6.25-19.59,8.33-40.52,9.36-61,1.15-22.88.9-45.86.62-68.76-.27-22-1.05-44-3.14-65.9-4.56-47.79-15.11-95-37.35-137.81a276.37,276.37,0,0,0-45.85-63.92c-15-15.6-32.24-29.14-52.31-37.45a74.52,74.52,0,0,0-28-6c-24.87-.14-47.17,11.81-65.59,27.62-12.88,11.05-24.11,24.17-34.37,37.65a210.94,210.94,0,0,0-22,36.19c-17.9,37.25-27.17,78-33.91,118.52-4,23.89-7.16,47.94-10.23,72-2.82,22-5.2,44.14-6.67,66.32a710.26,710.26,0,0,0,6.37,153.43A726.7,726.7,0,0,0,251.87,765.3q11,28.44,24.19,56c3.4,7.1,14.1,9.52,20.52,5.38,7.29-4.7,9-12.93,5.38-20.52Z"/></g></g></svg>